<?xml version="1.0" encoding="utf-8"?>
<!-- Generator: Adobe Illustrator 16.0.4, SVG Export Plug-In . SVG Version: 6.00 Build 0)  -->
<!DOCTYPE svg PUBLIC "-//W3C//DTD SVG 1.1//EN" "http://www.w3.org/Graphics/SVG/1.1/DTD/svg11.dtd">
<svg version="1.1" id="Ebene_1" xmlns="http://www.w3.org/2000/svg" xmlns:xlink="http://www.w3.org/1999/xlink" x="0px" y="0px"
	 width="841.89px" height="595.28px" viewBox="0 0 841.89 595.28" enable-background="new 0 0 841.89 595.28" xml:space="preserve">
<path fill="#7D0631" d="M425.871,374.551c0-57.669,0-115.339,0-173.008c14.701,0,29.351,0,44.001,0
	c0.768,0.622,0.736-0.346,0.768,0.622c0,0,0-1.167,0,0c0.002,53.717,0.112,118.463,0.11,172.18"/>
<path fill-rule="evenodd" clip-rule="evenodd" fill="#FEFEFE" d="M470.75,201.543"/>
<path fill-rule="evenodd" clip-rule="evenodd" fill="#FEFEFE" d="M469.977,374.387c0.258-0.014,0.516-0.027,0.773-0.042"/>
<path fill-rule="evenodd" clip-rule="evenodd" fill="#FEFEFE" d="M473.25,403.96c-15.5,0-31.001,0-46.501,0
	c0-9.76,0-19.585,0-29.409c1.666-6.481,3.438-12.938,4.975-19.448c2.694-11.409,5.244-22.852,7.84-34.219c6.33,0,12.044,0,18.097,0"
	/>
<path fill-rule="evenodd" clip-rule="evenodd" fill="#7D0631" d="M436,402.456c0.75-3.94,1.463-7.687,2.229-11.719
	c5.892,0,11.988,0,18.967,0c0.666,3.55,1.41,7.513,2.197,11.719C451.388,402.456,443.791,402.456,436,402.456z"/>
<path fill-rule="evenodd" clip-rule="evenodd" fill="#7D0832" d="M441.921,372.495c1.782-9.251,3.563-18.504,5.798-30.107
	c2.007,10.484,4.483,21.78,6.079,30.106"/>
</svg>
